<mxfile host="app.diagrams.net" agent="Mozilla/5.0 (Windows NT 10.0; Win64; x64) AppleWebKit/537.36 (KHTML, like Gecko) Chrome/132.0.0.0 Safari/537.36" version="26.0.11">
  <diagram id="aS9pjdUC0Do7hMSleVWt" name="第 1 页">
    <mxGraphModel dx="2010" dy="1056" grid="0" gridSize="10" guides="1" tooltips="1" connect="1" arrows="1" fold="1" page="1" pageScale="1" pageWidth="3300" pageHeight="2339" background="none" math="0" shadow="0">
      <root>
        <mxCell id="0" />
        <mxCell id="1" parent="0" />
        <mxCell id="HyDP0fXbinYU09aLnzdq-5" value="原始库-数据表" style="shape=table;startSize=23;container=1;collapsible=0;childLayout=tableLayout;strokeColor=default;fontSize=16;movable=1;resizable=1;rotatable=1;deletable=1;editable=1;locked=0;connectable=1;align=left;" parent="1" vertex="1">
          <mxGeometry x="739" y="694" width="1044.707719543387" height="188.1699940347902" as="geometry" />
        </mxCell>
        <mxCell id="HyDP0fXbinYU09aLnzdq-6" value="" style="shape=tableRow;horizontal=0;startSize=0;swimlaneHead=0;swimlaneBody=0;strokeColor=inherit;top=0;left=0;bottom=0;right=0;collapsible=0;dropTarget=0;fillColor=none;points=[[0,0.5],[1,0.5]];portConstraint=eastwest;fontSize=16;" parent="HyDP0fXbinYU09aLnzdq-5" vertex="1">
          <mxGeometry y="23" width="1044.707719543387" height="37" as="geometry" />
        </mxCell>
        <mxCell id="HyDP0fXbinYU09aLnzdq-21" value="一级分类" style="shape=partialRectangle;html=1;whiteSpace=wrap;connectable=0;strokeColor=#6c8ebf;overflow=hidden;fillColor=#dae8fc;top=0;left=0;bottom=0;right=0;pointerEvents=1;fontSize=16;align=left;" parent="HyDP0fXbinYU09aLnzdq-6" vertex="1">
          <mxGeometry width="81" height="37" as="geometry">
            <mxRectangle width="81" height="37" as="alternateBounds" />
          </mxGeometry>
        </mxCell>
        <mxCell id="HyDP0fXbinYU09aLnzdq-7" value="二级分类" style="shape=partialRectangle;html=1;whiteSpace=wrap;connectable=0;strokeColor=#6c8ebf;overflow=hidden;fillColor=#dae8fc;top=0;left=0;bottom=0;right=0;pointerEvents=1;fontSize=16;align=left;" parent="HyDP0fXbinYU09aLnzdq-6" vertex="1">
          <mxGeometry x="81" width="101" height="37" as="geometry">
            <mxRectangle width="101" height="37" as="alternateBounds" />
          </mxGeometry>
        </mxCell>
        <mxCell id="HyDP0fXbinYU09aLnzdq-8" value="三级分类" style="shape=partialRectangle;html=1;whiteSpace=wrap;connectable=0;strokeColor=#6c8ebf;overflow=hidden;fillColor=#dae8fc;top=0;left=0;bottom=0;right=0;pointerEvents=1;fontSize=16;align=left;" parent="HyDP0fXbinYU09aLnzdq-6" vertex="1">
          <mxGeometry x="182" width="115" height="37" as="geometry">
            <mxRectangle width="115" height="37" as="alternateBounds" />
          </mxGeometry>
        </mxCell>
        <mxCell id="HyDP0fXbinYU09aLnzdq-9" value="文件名称" style="shape=partialRectangle;html=1;whiteSpace=wrap;connectable=0;strokeColor=#6c8ebf;overflow=hidden;fillColor=#dae8fc;top=0;left=0;bottom=0;right=0;pointerEvents=1;fontSize=16;align=left;" parent="HyDP0fXbinYU09aLnzdq-6" vertex="1">
          <mxGeometry x="297" width="748" height="37" as="geometry">
            <mxRectangle width="748" height="37" as="alternateBounds" />
          </mxGeometry>
        </mxCell>
        <mxCell id="HyDP0fXbinYU09aLnzdq-10" value="" style="shape=tableRow;horizontal=0;startSize=0;swimlaneHead=0;swimlaneBody=0;strokeColor=inherit;top=0;left=0;bottom=0;right=0;collapsible=0;dropTarget=0;fillColor=none;points=[[0,0.5],[1,0.5]];portConstraint=eastwest;fontSize=16;" parent="HyDP0fXbinYU09aLnzdq-5" vertex="1">
          <mxGeometry y="60" width="1044.707719543387" height="31" as="geometry" />
        </mxCell>
        <mxCell id="HyDP0fXbinYU09aLnzdq-22" value="连接器" style="shape=partialRectangle;html=1;whiteSpace=wrap;connectable=0;strokeColor=inherit;overflow=hidden;fillColor=none;top=0;left=0;bottom=0;right=0;pointerEvents=1;fontSize=16;align=left;" parent="HyDP0fXbinYU09aLnzdq-10" vertex="1">
          <mxGeometry width="81" height="31" as="geometry">
            <mxRectangle width="81" height="31" as="alternateBounds" />
          </mxGeometry>
        </mxCell>
        <mxCell id="HyDP0fXbinYU09aLnzdq-11" value="连接器概述" style="shape=partialRectangle;html=1;whiteSpace=wrap;connectable=0;strokeColor=inherit;overflow=hidden;fillColor=none;top=0;left=0;bottom=0;right=0;pointerEvents=1;fontSize=16;align=left;" parent="HyDP0fXbinYU09aLnzdq-10" vertex="1">
          <mxGeometry x="81" width="101" height="31" as="geometry">
            <mxRectangle width="101" height="31" as="alternateBounds" />
          </mxGeometry>
        </mxCell>
        <mxCell id="HyDP0fXbinYU09aLnzdq-12" value="连接器定义" style="shape=partialRectangle;html=1;whiteSpace=wrap;connectable=0;strokeColor=inherit;overflow=hidden;fillColor=none;top=0;left=0;bottom=0;right=0;pointerEvents=1;fontSize=16;align=left;" parent="HyDP0fXbinYU09aLnzdq-10" vertex="1">
          <mxGeometry x="182" width="115" height="31" as="geometry">
            <mxRectangle width="115" height="31" as="alternateBounds" />
          </mxGeometry>
        </mxCell>
        <mxCell id="HyDP0fXbinYU09aLnzdq-13" value="&amp;nbsp;/连接器/概述/定义/连接器基础知识培训pptx - 人人文库.md" style="shape=partialRectangle;html=1;whiteSpace=wrap;connectable=0;strokeColor=inherit;overflow=hidden;fillColor=none;top=0;left=0;bottom=0;right=0;pointerEvents=1;fontSize=16;align=left;" parent="HyDP0fXbinYU09aLnzdq-10" vertex="1">
          <mxGeometry x="297" width="748" height="31" as="geometry">
            <mxRectangle width="748" height="31" as="alternateBounds" />
          </mxGeometry>
        </mxCell>
        <mxCell id="HyDP0fXbinYU09aLnzdq-14" value="" style="shape=tableRow;horizontal=0;startSize=0;swimlaneHead=0;swimlaneBody=0;strokeColor=inherit;top=0;left=0;bottom=0;right=0;collapsible=0;dropTarget=0;fillColor=none;points=[[0,0.5],[1,0.5]];portConstraint=eastwest;fontSize=16;" parent="HyDP0fXbinYU09aLnzdq-5" vertex="1">
          <mxGeometry y="91" width="1044.707719543387" height="32" as="geometry" />
        </mxCell>
        <mxCell id="HyDP0fXbinYU09aLnzdq-23" value="连接器" style="shape=partialRectangle;html=1;whiteSpace=wrap;connectable=0;strokeColor=inherit;overflow=hidden;fillColor=none;top=0;left=0;bottom=0;right=0;pointerEvents=1;fontSize=16;align=left;" parent="HyDP0fXbinYU09aLnzdq-14" vertex="1">
          <mxGeometry width="81" height="32" as="geometry">
            <mxRectangle width="81" height="32" as="alternateBounds" />
          </mxGeometry>
        </mxCell>
        <mxCell id="HyDP0fXbinYU09aLnzdq-15" value="连接器概述" style="shape=partialRectangle;html=1;whiteSpace=wrap;connectable=0;strokeColor=inherit;overflow=hidden;fillColor=none;top=0;left=0;bottom=0;right=0;pointerEvents=1;fontSize=16;align=left;" parent="HyDP0fXbinYU09aLnzdq-14" vertex="1">
          <mxGeometry x="81" width="101" height="32" as="geometry">
            <mxRectangle width="101" height="32" as="alternateBounds" />
          </mxGeometry>
        </mxCell>
        <mxCell id="HyDP0fXbinYU09aLnzdq-16" value="连接器定义" style="shape=partialRectangle;html=1;whiteSpace=wrap;connectable=0;strokeColor=inherit;overflow=hidden;fillColor=none;top=0;left=0;bottom=0;right=0;pointerEvents=1;fontSize=16;align=left;" parent="HyDP0fXbinYU09aLnzdq-14" vertex="1">
          <mxGeometry x="182" width="115" height="32" as="geometry">
            <mxRectangle width="115" height="32" as="alternateBounds" />
          </mxGeometry>
        </mxCell>
        <mxCell id="HyDP0fXbinYU09aLnzdq-17" value="&amp;nbsp;/连接器/概述/定义/消息队列 CKafka 版 连接器概述-CKafka 连接器-文档中心-腾讯云.md" style="shape=partialRectangle;html=1;whiteSpace=wrap;connectable=0;strokeColor=inherit;overflow=hidden;fillColor=none;top=0;left=0;bottom=0;right=0;pointerEvents=1;fontSize=16;align=left;" parent="HyDP0fXbinYU09aLnzdq-14" vertex="1">
          <mxGeometry x="297" width="748" height="32" as="geometry">
            <mxRectangle width="748" height="32" as="alternateBounds" />
          </mxGeometry>
        </mxCell>
        <mxCell id="HyDP0fXbinYU09aLnzdq-30" style="shape=tableRow;horizontal=0;startSize=0;swimlaneHead=0;swimlaneBody=0;strokeColor=inherit;top=0;left=0;bottom=0;right=0;collapsible=0;dropTarget=0;fillColor=none;points=[[0,0.5],[1,0.5]];portConstraint=eastwest;fontSize=16;" parent="HyDP0fXbinYU09aLnzdq-5" vertex="1">
          <mxGeometry y="123" width="1044.707719543387" height="35" as="geometry" />
        </mxCell>
        <mxCell id="HyDP0fXbinYU09aLnzdq-31" value="连接器" style="shape=partialRectangle;html=1;whiteSpace=wrap;connectable=0;strokeColor=inherit;overflow=hidden;fillColor=none;top=0;left=0;bottom=0;right=0;pointerEvents=1;fontSize=16;align=left;" parent="HyDP0fXbinYU09aLnzdq-30" vertex="1">
          <mxGeometry width="81" height="35" as="geometry">
            <mxRectangle width="81" height="35" as="alternateBounds" />
          </mxGeometry>
        </mxCell>
        <mxCell id="HyDP0fXbinYU09aLnzdq-32" value="连接器概述" style="shape=partialRectangle;html=1;whiteSpace=wrap;connectable=0;strokeColor=inherit;overflow=hidden;fillColor=none;top=0;left=0;bottom=0;right=0;pointerEvents=1;fontSize=16;align=left;" parent="HyDP0fXbinYU09aLnzdq-30" vertex="1">
          <mxGeometry x="81" width="101" height="35" as="geometry">
            <mxRectangle width="101" height="35" as="alternateBounds" />
          </mxGeometry>
        </mxCell>
        <mxCell id="HyDP0fXbinYU09aLnzdq-33" value="连接器的结构" style="shape=partialRectangle;html=1;whiteSpace=wrap;connectable=0;strokeColor=inherit;overflow=hidden;fillColor=none;top=0;left=0;bottom=0;right=0;pointerEvents=1;fontSize=16;align=left;" parent="HyDP0fXbinYU09aLnzdq-30" vertex="1">
          <mxGeometry x="182" width="115" height="35" as="geometry">
            <mxRectangle width="115" height="35" as="alternateBounds" />
          </mxGeometry>
        </mxCell>
        <mxCell id="HyDP0fXbinYU09aLnzdq-34" value="&amp;nbsp;/连接器/概述/的结构/连接器基础知识 - 道客巴巴.md" style="shape=partialRectangle;html=1;whiteSpace=wrap;connectable=0;strokeColor=inherit;overflow=hidden;fillColor=none;top=0;left=0;bottom=0;right=0;pointerEvents=1;fontSize=16;align=left;" parent="HyDP0fXbinYU09aLnzdq-30" vertex="1">
          <mxGeometry x="297" width="748" height="35" as="geometry">
            <mxRectangle width="748" height="35" as="alternateBounds" />
          </mxGeometry>
        </mxCell>
        <mxCell id="HyDP0fXbinYU09aLnzdq-35" style="shape=tableRow;horizontal=0;startSize=0;swimlaneHead=0;swimlaneBody=0;strokeColor=inherit;top=0;left=0;bottom=0;right=0;collapsible=0;dropTarget=0;fillColor=none;points=[[0,0.5],[1,0.5]];portConstraint=eastwest;fontSize=16;" parent="HyDP0fXbinYU09aLnzdq-5" vertex="1">
          <mxGeometry y="158" width="1044.707719543387" height="30" as="geometry" />
        </mxCell>
        <mxCell id="HyDP0fXbinYU09aLnzdq-36" value="连接器" style="shape=partialRectangle;html=1;whiteSpace=wrap;connectable=0;strokeColor=inherit;overflow=hidden;fillColor=none;top=0;left=0;bottom=0;right=0;pointerEvents=1;fontSize=16;align=left;" parent="HyDP0fXbinYU09aLnzdq-35" vertex="1">
          <mxGeometry width="81" height="30" as="geometry">
            <mxRectangle width="81" height="30" as="alternateBounds" />
          </mxGeometry>
        </mxCell>
        <mxCell id="HyDP0fXbinYU09aLnzdq-37" value="连接器概述" style="shape=partialRectangle;html=1;whiteSpace=wrap;connectable=0;strokeColor=inherit;overflow=hidden;fillColor=none;top=0;left=0;bottom=0;right=0;pointerEvents=1;fontSize=16;align=left;" parent="HyDP0fXbinYU09aLnzdq-35" vertex="1">
          <mxGeometry x="81" width="101" height="30" as="geometry">
            <mxRectangle width="101" height="30" as="alternateBounds" />
          </mxGeometry>
        </mxCell>
        <mxCell id="HyDP0fXbinYU09aLnzdq-38" value="连接器的结构" style="shape=partialRectangle;html=1;whiteSpace=wrap;connectable=0;strokeColor=inherit;overflow=hidden;fillColor=none;top=0;left=0;bottom=0;right=0;pointerEvents=1;fontSize=16;align=left;" parent="HyDP0fXbinYU09aLnzdq-35" vertex="1">
          <mxGeometry x="182" width="115" height="30" as="geometry">
            <mxRectangle width="115" height="30" as="alternateBounds" />
          </mxGeometry>
        </mxCell>
        <mxCell id="HyDP0fXbinYU09aLnzdq-39" value="&amp;nbsp;/连接器/概述/的结构/连接器的基础知识 - CSDN博客.md" style="shape=partialRectangle;html=1;whiteSpace=wrap;connectable=0;strokeColor=inherit;overflow=hidden;fillColor=none;top=0;left=0;bottom=0;right=0;pointerEvents=1;fontSize=16;align=left;" parent="HyDP0fXbinYU09aLnzdq-35" vertex="1">
          <mxGeometry x="297" width="748" height="30" as="geometry">
            <mxRectangle width="748" height="30" as="alternateBounds" />
          </mxGeometry>
        </mxCell>
        <mxCell id="HyDP0fXbinYU09aLnzdq-201" value="&lt;div&gt;&lt;span style=&quot;background-color: transparent; color: light-dark(rgb(0, 0, 0), rgb(255, 255, 255));&quot;&gt;&lt;br&gt;&lt;/span&gt;&lt;/div&gt;&lt;div&gt;&lt;span style=&quot;background-color: transparent; color: light-dark(rgb(0, 0, 0), rgb(255, 255, 255));&quot;&gt;Minio&lt;br&gt;Server&lt;/span&gt;&lt;/div&gt;" style="strokeWidth=2;html=1;shape=mxgraph.flowchart.database;whiteSpace=wrap;fontSize=20;" parent="1" vertex="1">
          <mxGeometry x="137" y="1198" width="120" height="121" as="geometry" />
        </mxCell>
        <mxCell id="-tEQGCjNAktsvQ3V7sKn-1" value="bucket&lt;div&gt;origin&lt;/div&gt;" style="ellipse;shape=cloud;whiteSpace=wrap;html=1;fontSize=20;" vertex="1" parent="1">
          <mxGeometry x="460" y="940" width="120" height="80" as="geometry" />
        </mxCell>
        <mxCell id="-tEQGCjNAktsvQ3V7sKn-2" value="bucket&lt;div&gt;tagging&lt;/div&gt;" style="ellipse;shape=cloud;whiteSpace=wrap;html=1;fontSize=20;" vertex="1" parent="1">
          <mxGeometry x="460" y="1218.5" width="120" height="80" as="geometry" />
        </mxCell>
        <mxCell id="-tEQGCjNAktsvQ3V7sKn-3" value="bucket&lt;div&gt;formal&lt;/div&gt;" style="ellipse;shape=cloud;whiteSpace=wrap;html=1;fontSize=20;" vertex="1" parent="1">
          <mxGeometry x="460" y="1513" width="120" height="80" as="geometry" />
        </mxCell>
        <mxCell id="-tEQGCjNAktsvQ3V7sKn-5" value="" style="endArrow=classic;html=1;rounded=0;entryX=1;entryY=0.5;entryDx=0;entryDy=0;entryPerimeter=0;exitX=0.55;exitY=0.95;exitDx=0;exitDy=0;exitPerimeter=0;fontSize=20;" edge="1" parent="1" source="-tEQGCjNAktsvQ3V7sKn-1" target="HyDP0fXbinYU09aLnzdq-201">
          <mxGeometry width="50" height="50" relative="1" as="geometry">
            <mxPoint x="7" y="1377" as="sourcePoint" />
            <mxPoint x="57" y="1327" as="targetPoint" />
          </mxGeometry>
        </mxCell>
        <mxCell id="-tEQGCjNAktsvQ3V7sKn-6" value="" style="endArrow=classic;html=1;rounded=0;entryX=1;entryY=0.5;entryDx=0;entryDy=0;entryPerimeter=0;fontSize=20;" edge="1" parent="1" source="-tEQGCjNAktsvQ3V7sKn-2" target="HyDP0fXbinYU09aLnzdq-201">
          <mxGeometry width="50" height="50" relative="1" as="geometry">
            <mxPoint x="17" y="1387" as="sourcePoint" />
            <mxPoint x="195" y="1323" as="targetPoint" />
          </mxGeometry>
        </mxCell>
        <mxCell id="-tEQGCjNAktsvQ3V7sKn-7" value="" style="endArrow=classic;html=1;rounded=0;entryX=1;entryY=0.5;entryDx=0;entryDy=0;entryPerimeter=0;exitX=0.4;exitY=0.1;exitDx=0;exitDy=0;exitPerimeter=0;fontSize=20;" edge="1" parent="1" source="-tEQGCjNAktsvQ3V7sKn-3" target="HyDP0fXbinYU09aLnzdq-201">
          <mxGeometry width="50" height="50" relative="1" as="geometry">
            <mxPoint x="27" y="1397" as="sourcePoint" />
            <mxPoint x="77" y="1347" as="targetPoint" />
          </mxGeometry>
        </mxCell>
      </root>
    </mxGraphModel>
  </diagram>
</mxfile>
